# xmcd CD database file
#
# Track frame offsets:
#	150
#	12365
#	26395
#	32757
#	38118
#	53337
#	61263
#	68467
#	82470
#	92326
#	103472
#	116167
#	128619
#
# Disc length: 1897 seconds
#
# Revision: 0
# Processed by: cddbd v1.5.1PL0 Copyright (c) Steve Scherf et al.
# Submitted via: CDex 1.51
#
DISCID=a107670d
DTITLE=Georges Brassens - Les Chansons Intemporelles CD2
DYEAR=2004
DGENRE=Jazz
TTITLE0=Une Jolie Fleur
TTITLE1=Les Amoureux Des Bancs Publics
TTITLE2=La Cane De Jeanne
TTITLE3=Le Vent
TTITLE4=Brave Margot
TTITLE5=Comme Hier
TTITLE6=Pauvre Martin
TTITLE7=La Priere
TTITLE8=Gastibelza
TTITLE9=La Premiere Fille
TTITLE10=La Mauvaise Herbe
TTITLE11=Les Sabots d'Helene
TTITLE12=Chansons Pour l'Auvergnat
EXTD=YEAR: 2004
EXTT0=
EXTT1=
EXTT2=
EXTT3=
EXTT4=
EXTT5=
EXTT6=
EXTT7=
EXTT8=
EXTT9=
EXTT10=
EXTT11=
EXTT12=
PLAYORDER=
